<?xml version="1.0" standalone="no"?>
<!DOCTYPE svg PUBLIC "-//W3C//DTD SVG 20010904//EN"
 "http://www.w3.org/TR/2001/REC-SVG-20010904/DTD/svg10.dtd">
<svg version="1.0" xmlns="http://www.w3.org/2000/svg"
 width="234.000000pt" height="234.000000pt" viewBox="0 0 234.000000 234.000000"
 preserveAspectRatio="xMidYMid meet">
<metadata>
Created by potrace 1.11, written by Peter Selinger 2001-2013
</metadata>
<g transform="translate(0.000000,234.000000) scale(0.100000,-0.100000)"
fill="#000000" stroke="none">
<path d="M10 1170 l0 -1160 1160 0 1160 0 0 1160 0 1160 -1160 0 -1160 0 0
-1160z m2270 0 l0 -1110 -1110 0 -1110 0 0 1110 0 1110 1110 0 1110 0 0 -1110z"/>
<path d="M640 1145 l0 -585 200 0 200 0 0 585 0 585 -200 0 -200 0 0 -585z
m220 0 c0 -438 0 -445 -20 -445 -20 0 -20 7 -20 445 0 438 0 445 20 445 20 0
20 -7 20 -445z"/>
<path d="M1320 1308 c0 -233 -4 -428 -8 -434 -16 -24 -54 -34 -131 -34 l-81 0
0 -141 0 -141 208 5 c235 5 265 11 328 72 73 70 74 79 74 622 l0 473 -195 0
-195 0 0 -422z m220 -108 c0 -426 -2 -441 -56 -477 -21 -14 -53 -19 -136 -22
-104 -3 -108 -3 -108 18 0 20 5 21 84 21 99 0 144 13 157 47 5 13 9 198 9 414
l0 389 25 0 25 0 0 -390z"/>
</g>
</svg>
